REM DIRINDEX 1\5,1\2\6,1\2\7,1\3\8,1\3\9,1\4\10,1\4\11,1\4\12
REM DIRNAME folder01,folder02,folder03,folder04,folder05,folder06,folder07,folder08,folder09,folder10,folder11,folder12
TITLE ""
FILE "EJE_DB3000_5th_1A_17.mp3" MP3
  TRACK 01 AUDIO
    TITLE "0:"
    INDEX 01 00:00:00
  TRACK 02 AUDIO
    TITLE "10:cjc026_07326"
    INDEX 01 00:00:03
  TRACK 03 AUDIO
    TITLE "0:"
    INDEX 01 00:01:46
  TRACK 04 AUDIO
    TITLE "11:cjc026_07327"
    INDEX 01 00:01:73
  TRACK 05 AUDIO
    TITLE "0:"
    INDEX 01 00:02:71
  TRACK 06 AUDIO
    TITLE "12:cjc026_07328"
    INDEX 01 00:03:21
  TRACK 07 AUDIO
    TITLE "0:"
    INDEX 01 00:04:64
  TRACK 08 AUDIO
    TITLE "10:cjc026_07329"
    INDEX 01 00:05:14
  TRACK 09 AUDIO
    TITLE "0:"
    INDEX 01 00:06:02
  TRACK 10 AUDIO
    TITLE "11:cjc026_07330"
    INDEX 01 00:06:28
  TRACK 11 AUDIO
    TITLE "0:"
    INDEX 01 00:07:23
  TRACK 12 AUDIO
    TITLE "12:cjc026_07331"
    INDEX 01 00:07:51
  TRACK 13 AUDIO
    TITLE "0:"
    INDEX 01 00:08:38
  TRACK 14 AUDIO
    TITLE "10:cjc026_07332"
    INDEX 01 00:08:62
  TRACK 15 AUDIO
    TITLE "0:"
    INDEX 01 00:09:47
  TRACK 16 AUDIO
    TITLE "11:cjc026_07333"
    INDEX 01 00:09:73
  TRACK 17 AUDIO
    TITLE "0:"
    INDEX 01 00:10:68
  TRACK 18 AUDIO
    TITLE "12:cjc026_07334"
    INDEX 01 00:11:19
  TRACK 19 AUDIO
    TITLE "0:"
    INDEX 01 00:12:05
  TRACK 20 AUDIO
    TITLE "10:cjc026_07335"
    INDEX 01 00:12:30
  TRACK 21 AUDIO
    TITLE "0:"
    INDEX 01 00:13:28
  TRACK 22 AUDIO
    TITLE "11:cjc026_07336"
    INDEX 01 00:13:53
  TRACK 23 AUDIO
    TITLE "0:"
    INDEX 01 00:15:42
  TRACK 24 AUDIO
    TITLE "12:cjc026_07337"
    INDEX 01 00:15:68
  TRACK 25 AUDIO
    TITLE "0:"
    INDEX 01 00:16:65
  TRACK 26 AUDIO
    TITLE "10:cjc026_07338"
    INDEX 01 00:17:16
  TRACK 27 AUDIO
    TITLE "0:"
    INDEX 01 00:17:59
  TRACK 28 AUDIO
    TITLE "11:cjc026_07339"
    INDEX 01 00:18:19
  TRACK 29 AUDIO
    TITLE "0:"
    INDEX 01 00:20:02
  TRACK 30 AUDIO
    TITLE "12:cjc026_07340"
    INDEX 01 00:20:28
  TRACK 31 AUDIO
    TITLE "0:"
    INDEX 01 00:20:73
  TRACK 32 AUDIO
    TITLE "10:cjc026_07341"
    INDEX 01 00:21:31
  TRACK 33 AUDIO
    TITLE "0:"
    INDEX 01 00:22:23
  TRACK 34 AUDIO
    TITLE "11:cjc026_07342"
    INDEX 01 00:22:50
  TRACK 35 AUDIO
    TITLE "0:"
    INDEX 01 00:23:38
  TRACK 36 AUDIO
    TITLE "12:cjc026_07343"
    INDEX 01 00:23:63
  TRACK 37 AUDIO
    TITLE "0:"
    INDEX 01 00:24:55
  TRACK 38 AUDIO
    TITLE "10:cjc026_07344"
    INDEX 01 00:25:07
  TRACK 39 AUDIO
    TITLE "0:"
    INDEX 01 00:25:70
  TRACK 40 AUDIO
    TITLE "11:cjc026_07345"
    INDEX 01 00:26:22
  TRACK 41 AUDIO
    TITLE "0:"
    INDEX 01 00:27:14
  TRACK 42 AUDIO
    TITLE "12:cjc026_07346"
    INDEX 01 00:27:39
  TRACK 43 AUDIO
    TITLE "0:"
    INDEX 01 00:28:27
  TRACK 44 AUDIO
    TITLE "10:cjc026_07347"
    INDEX 01 00:28:55
  TRACK 45 AUDIO
    TITLE "0:"
    INDEX 01 00:29:50
  TRACK 46 AUDIO
    TITLE "11:cjc026_07348"
    INDEX 01 00:30:01
  TRACK 47 AUDIO
    TITLE "0:"
    INDEX 01 00:30:69
  TRACK 48 AUDIO
    TITLE "12:cjc026_07349"
    INDEX 01 00:31:22
  TRACK 49 AUDIO
    TITLE "0:"
    INDEX 01 00:32:05
  TRACK 50 AUDIO
    TITLE "10:cjc026_07350"
    INDEX 01 00:32:43
  TRACK 51 AUDIO
    TITLE "0:"
    INDEX 01 00:33:32
  TRACK 52 AUDIO
    TITLE "11:cjc026_07351"
    INDEX 01 00:33:58
  TRACK 53 AUDIO
    TITLE "0:"
    INDEX 01 00:34:43
  TRACK 54 AUDIO
    TITLE "12:cjc026_07352"
    INDEX 01 00:34:69
  TRACK 55 AUDIO
    TITLE "0:"
    INDEX 01 00:35:57
  TRACK 56 AUDIO
    TITLE "10:cjc026_07353"
    INDEX 01 00:36:09
  TRACK 57 AUDIO
    TITLE "0:"
    INDEX 01 00:37:05
  TRACK 58 AUDIO
    TITLE "11:cjc026_07354"
    INDEX 01 00:37:30
  TRACK 59 AUDIO
    TITLE "0:"
    INDEX 01 00:38:37
  TRACK 60 AUDIO
    TITLE "12:cjc026_07355"
    INDEX 01 00:38:63
  TRACK 61 AUDIO
    TITLE "0:"
    INDEX 01 00:39:56
  TRACK 62 AUDIO
    TITLE "10:cjc026_07356"
    INDEX 01 00:40:09
  TRACK 63 AUDIO
    TITLE "0:"
    INDEX 01 00:41:08
  TRACK 64 AUDIO
    TITLE "11:cjc026_07357"
    INDEX 01 00:41:36
  TRACK 65 AUDIO
    TITLE "0:"
    INDEX 01 00:42:53
  TRACK 66 AUDIO
    TITLE "12:cjc026_07358"
    INDEX 01 00:43:03
  TRACK 67 AUDIO
    TITLE "0:"
    INDEX 01 00:44:05
  TRACK 68 AUDIO
    TITLE "10:cjc026_07359"
    INDEX 01 00:44:30
  TRACK 69 AUDIO
    TITLE "0:"
    INDEX 01 00:45:22
  TRACK 70 AUDIO
    TITLE "11:cjc026_07360"
    INDEX 01 00:45:49
  TRACK 71 AUDIO
    TITLE "0:"
    INDEX 01 00:46:72
  TRACK 72 AUDIO
    TITLE "12:cjc026_07361"
    INDEX 01 00:47:23
  TRACK 73 AUDIO
    TITLE "0:"
    INDEX 01 00:48:12
